<?xml version="1.0" encoding="UTF-8"?>
<svg id="Layer_1" data-name="Layer 1" xmlns="http://www.w3.org/2000/svg" viewBox="0 0 1080 1080">
  <defs>
    <style>
      .cls-1 {
        fill: #f5f6f7;
      }

      .cls-2 {
        fill: #dcdde3;
      }

      .cls-3 {
        fill: #f4f5f7;
      }

      .cls-4 {
        fill: #f7f036;
      }

      .cls-5 {
        fill: #f7f031;
      }

      .cls-6 {
        fill: #f1f1f3;
      }

      .cls-7 {
        fill: #aec8dd;
      }

      .cls-8 {
        fill: #faf230;
      }

      .cls-9 {
        fill: #93b2ce;
      }

      .cls-10 {
        fill: #f7f7f8;
      }

      .cls-11 {
        fill: #f5f5f6;
      }

      .cls-12 {
        fill: #f9f9fa;
      }

      .cls-13 {
        fill: #bed2e3;
      }

      .cls-14 {
        fill: #f3f4f7;
      }

      .cls-15 {
        fill: #f6f8f8;
      }

      .cls-16 {
        fill: #e1ac2f;
      }

      .cls-17 {
        fill: #f2f3f7;
      }

      .cls-18 {
        fill: #e0aa2f;
      }

      .cls-19 {
        fill: #f5f6f8;
      }

      .cls-20 {
        fill: #f4f6f6;
      }

      .cls-21 {
        fill: #f6f6f8;
      }

      .cls-22 {
        fill: #e2ad2f;
      }

      .cls-23 {
        fill: #eef0f1;
      }

      .cls-24 {
        fill: #f9f02f;
      }

      .cls-25 {
        fill: #e2ac2e;
      }

      .cls-26 {
        fill: #f4f4f6;
      }

      .cls-27 {
        fill: #fefefe;
      }

      .cls-28 {
        fill: #edeef1;
      }

      .cls-29 {
        fill: #e5af2a;
      }

      .cls-30 {
        fill: #f7ee33;
      }

      .cls-31 {
        fill: #f7f7f9;
      }

      .cls-32 {
        fill: #eff0f2;
      }

      .cls-33 {
        fill: #f8ef30;
      }

      .cls-34 {
        fill: #f0f1f5;
      }

      .cls-35 {
        fill: #e1e2e6;
      }

      .cls-36 {
        fill: #f8f7f9;
      }

      .cls-37 {
        fill: #ebf0f4;
      }

      .cls-38 {
        fill: #f7f9f9;
      }

      .cls-39 {
        fill: #f5f6f6;
      }

      .cls-40 {
        fill: #f3f4f6;
      }

      .cls-41 {
        fill: #f7f8f9;
      }
    </style>
  </defs>
  <circle class="cls-28" cx="695.45" cy="683.88" r="2.37"/>
  <circle class="cls-37" cx="698.44" cy="696.9" r="2.38"/>
  <path class="cls-27" d="M851.53,422.54l-2.78,1.1c-23.21-2.03-46.34-3.24-69.4-3.62-20.6-6.76-41.54-11.54-63.74-14.5-39.32-5.24-78.4-8.07-117.95-6.52-9.5.37-17.08.72-24.69-5.95l-33.56-29.41c-14.53-12.73-30.09-23.19-47.61-31.31-10.69-4.96-21.69-7.01-33.72-6.31l-129.22,7.51c-3.72.22-6.43,1.05-8.13,3.91-3.31,5.56,1.13,12.35,7.71,17.11l50.59,36.63c2.88,2.08,3.91,5.37,3.21,8.33-.51,2.15-4.07,6.2-6.57,4.74l-64.33-45.46c-8.46-5.98-7.61-19.92-3.43-28.32,4.45-8.95,13.47-12.6,24-13.2l119.49-6.83c16.7-.95,32.2,1.66,47.48,8.55,12.01,5.42,23.2,11.8,33.79,19.83,18.26,13.85,34.55,28.85,52.2,44.29,47.32-2.53,94.06-1.01,140.99,6.89,43.15,7.26,84.84,18.2,125.68,32.53Z"/>
  <path class="cls-3" d="M656.29,354.92c-8.28,3.12-17.45.18-18.03-5.47-.12-1.18.73-1.63,1.66-1.73,3.82-.4,2.34,4.12,8.65,5.34,2.27.44,6.77-.87,5.47-3.88-1.67-3.87-11.62-2.38-14.28-7.58-.93-1.81-.65-4.46,1.33-5.76,8.34-5.51,20.13.27,18.13,4.19s-5.19-2.68-9.23-3.18c-2.22-.27-4.93-.04-6.13,2.85,5.9,4.14,15.98,3.63,16.15,9.8.06,2.03-1.04,4.41-3.71,5.42Z"/>
  <path class="cls-21" d="M770.46,366.49c2.84-4.54,2.4-19.22,7.59-14.52,2.04,1.85-.83,14.63-3.71,17.45-4.71,4.6-15.98,2.7-19.15-3.17-2.18-4.02.68-18.32,3.77-18.29,6.29.06-.52,10.21.95,16.68.91,4.03,8.45,5.23,10.56,1.85Z"/>
  <path class="cls-32" d="M675.89,355.56c-.17,1.88-1.62,2.48-2.43,2.59-1.52.21-3-.91-2.86-2.82l1.2-15.83-8.19-1.19c-1.05-.15-.5-2.89.3-2.81l22.98,2.39c-2.27,4.27-6.26,2.48-9.52,1.65l-1.48,16.01Z"/>
  <path class="cls-11" d="M632.55,352.17c-.05,1.78-1.33,2.94-2.12,3.19-1.39.43-3.24-.66-3.2-2.54l.37-17.59c.04-1.82,1.55-2.4,2.84-2.23,1.4.19,2.62,1.2,2.56,3.33l-.44,15.84Z"/>
  <path class="cls-40" d="M721.1,360.6c-.3,2.13-1.72,3.04-3.08,2.86-.99-.14-2.53-1.29-2.32-2.84l2.19-16.33c.26-1.96,1.34-2.97,3.11-2.78,1.26.14,2.63,1.04,2.35,3.06l-2.25,16.04Z"/>
  <path class="cls-10" d="M787.19,372.97c-.42,2.04-1.61,2.78-2.94,2.71-1.45-.08-2.85-1.3-2.41-3.34l3.33-15.58c.34-1.58,1.1-2.46,2.21-2.81,1.28-.41,3.66.51,3.3,2.25l-3.48,16.77Z"/>
  <path class="cls-31" d="M746.71,356.74c2.12.94,3.5,2.23,3.52,4.35.06,8.1-11.62,6.04-22.88,3.04l3.12-20.31c8.77.31,19.49,1.67,20.18,6.97.28,2.17-.66,3.86-3.94,5.95ZM744.68,359.18c-.38-.55-.85-1.49-2.14-1.72l-8.65-1.53c-.58,2.19-.84,4.18-.64,6.43,3.48.45,6.74,1.56,10.35.66,1.7-.42,1.73-2.9,1.09-3.84ZM745.49,351.58c.03-2.62-4.72-3.77-10.1-4.37-.57,1.88-.87,3.53-.85,5.66l8.4,1.1c1.5.2,2.53-1.67,2.54-2.39Z"/>
  <path class="cls-41" d="M707.35,362.08c-4.34-1.74-4.23-7.23-8.38-10.49-1.02-.8-3.41-1.28-4.25-.77-1.6.98.08,6.45-2.3,8.58-1,.9-4.27.16-4.12-1.27l2.11-19.6c10.96-.61,23.34,1.46,21.25,8.57-.88,3-3.51,4.07-7.59,4.16,2.83,3.22,5.52,5.15,5.86,9.45.08,1.04-1.82,1.69-2.59,1.38ZM695.47,341.79c-.62,2.05-.84,3.87-.26,5.82,6.55,1.44,11.66,1.33,11.19-2.17-.4-2.92-5.38-3.63-10.93-3.65Z"/>
  <path class="cls-38" d="M869.73,399.21c-4.61,6.18-4.35-12.97-12.67-13.4-2.39,3.74-1.9,8.21-5.39,8.35-1.07.04-2.94-1.23-2.34-2.88l6.73-18.43c10.07,2.62,20.67,5.22,18.83,12.06-.9,3.37-4.37,4.13-7.95,4.24,1.44,2.58,4.79,7.39,2.79,10.07ZM860.6,377.66c-1.37-.05-2.67,3.26-2.27,4.41.51,1.48,6.8,4.02,9.52,3.18.92-.29,2.8-1.91,1.53-3.61-1.88-2.52-5.83-3.88-8.78-3.98Z"/>
  <path class="cls-21" d="M842.42,387.24c-6.68,3.22-14.99.4-19.2-5.01-3.25-4.18-1.91-10.05.97-13.32,6.14-6.98,21.17-2.03,23.25,5.48,1.23,4.42,0,10.43-5.02,12.85ZM834.63,369.09c-4.38,0-7.94,3.55-7.94,7.94s3.55,7.94,7.94,7.94,7.94-3.55,7.94-7.94-3.55-7.94-7.94-7.94Z"/>
  <path class="cls-19" d="M616.17,353.56c-5.53,1.94-11.27,1.2-17.05.66l-.39-20.63c5.89-.93,11.84-1.09,17.33.79,4.05,1.38,5.85,5.34,5.97,8.96s-1.23,8.59-5.86,10.22ZM613.86,337.82c-3.11-2.01-6.66-1.48-9.95-1.22l.13,14.46c2.75.4,6.65,1.16,9.82-.96,4.06-2.71,3.71-9.88,0-12.27Z"/>
  <path class="cls-15" d="M811.44,379.42c-6.42,1.37-12.65-1-18.22-3.09l4.37-19.11c5.87.09,11.91,1.09,16.8,4.21,3.56,2.28,4.43,6.02,3.72,9.86-.53,2.86-2.18,7.18-6.67,8.14ZM812.02,364.98c-2.27-3.11-6.38-3.66-9.68-4.11l-3.28,13.66c2.81,1.62,7.36,3.08,10.72.9,3.23-2.09,4.21-7.75,2.24-10.46Z"/>
  <path class="cls-39" d="M894.86,410.41c-3.91.62-2.49-4.86-3.76-6.95-.41-.68-9.47-5.88-12.14-2.45-.81,1.03-2.06,1.68-2.96,1.83-.99.17-3.4-1.96-2.32-2.97l14.71-13.68c1.43-1.33,3.5-1.05,4.53-.54,1.63.82,2.4,2.29,2.57,4.36l1.32,16.9c.15,1.88-.42,3.24-1.95,3.48ZM890.73,389.98l-6.92,6.93,7.41,2.71-.49-9.63Z"/>
  <g>
    <path class="cls-8" d="M368.77,535.43l-207.39,10.88c-8.96.47-15.85-4.04-16.36-12.43-.54-8.79,6.01-14.18,15.29-14.65l207.2-10.57,1.26,26.76Z"/>
    <path class="cls-16" d="M372.83,619.97l-163.03,8.4c-3.74.19-5.49-3.66-5.58-6.04-.1-2.84,1.74-6.47,5.7-6.68l162.34-8.55.57,12.87Z"/>
    <path class="cls-24" d="M250.3,505.07c-5.83.31-8.94-2.54-9.46-7.11-.42-3.67,2.25-8.36,7.21-8.62l117.93-6.25.65,15.79-116.33,6.19Z"/>
    <path class="cls-22" d="M370.37,572.13l-105.88,5.64c-4.72.25-7.69-1.89-7.85-5.97s2.1-6.64,6.79-6.88l106.24-5.56.71,12.77Z"/>
    <path class="cls-25" d="M371.89,598.35l-58.38,3.03c-6.11.32-11.41-1.94-12.49-7.67-1.17-6.23,2.68-11.95,9.54-12.32l59.89-3.23,1.45,20.19Z"/>
    <path class="cls-18" d="M275.82,599.55l-92.48,4.81c-3.95.21-6.77-1.97-7.3-5.35-.44-2.85,1-6.93,4.88-7.14l93.95-5.08c4.62-.25,7.41,1.83,7.73,6.03.29,3.73-2.22,6.48-6.79,6.72Z"/>
    <path class="cls-5" d="M364.44,452.2c-.05,3.23.68,6.51-.31,9.99l-117.11,6.26c-2.9.16-4.51-.28-6.87-.87-3.33-2.38-2.57-7.09.78-9.19,4.16-2.61,15.73-2.98,21.22-3.11,3.37,1.16,7.31,1.4,11.83.75,25.47-2.47,51.14-4.22,77.01-5.27.3.61.59,1.09.9,1.1,3.81.06,7.47-.11,11.25-.65l1.31,1Z"/>
    <path class="cls-4" d="M350,423.59l-105.31,5.3c-2.67.13-3.45-3.25-3.71-4.72s.29-5.61,2.7-5.74l105.48-5.67c1.16,3.17.75,6.22.84,10.84Z"/>
    <g>
      <path class="cls-30" d="M180.8,456.76c-3.81.32-6.49,1.69-8.81-1.36-1.6-2.1-2.45-5.97-.05-8.1,2.89-2.58,7.15-.78,10.22-1.42,6.68-1.39,12.54-.68,19.1-1.27,6.4-.57,12.4-.93,19.02-1,5.19-.06,10.26-1.65,15.69-.9,4.38.6,8.5-.77,12.73-.79l20.86-.09c2.92-.01,3.49,3.7,3.45,5.57-.06,2.97-2.13,4.61-5.51,4.82l-29.84,1.8-19.1.81c-11.99.51-25.69.91-37.75,1.93Z"/>
      <path class="cls-33" d="M299.73,450.56c-6.43.33-9.44-3.25-9.3-8.35.15-5.48,4.21-6.97,9.9-7.06,5.15-.08,10.26-1.54,15.68-.86,4.04.51,7.74-.75,11.71-.86l16.55-.45c1.32-.04,4.93-1.81,5.81-.01,1.4,4.62.66,9.91,1.07,14.94l-51.41,2.66Z"/>
    </g>
  </g>
  <path class="cls-26" d="M688.05,690.23l-8.82,2.11,1.29,7.39c.24,1.36-.22,2.43-.69,2.94-.66.72-2.3.63-2.84.18s-.94-1.45-1.14-2.68l-3.2-19.66,13.1-3.04c1.15-.27,2.13.22,2.66,1.15.38.66-.13,1.84-1.71,2.14l-8.95,1.66c-.15,2.32.19,4.31.72,6.64l9.53-1.31c.55-.08,1.05,2.25.06,2.48Z"/>
  <path class="cls-6" d="M670.53,701.78c.34,1.9-.53,2.79-1.27,3.12-1.22.55-2.69-.09-2.95-1.56l-3.41-19.57c-.26-1.49.4-2.46,1.4-2.73.79-.21,2.58.2,2.81,1.49l3.42,19.24Z"/>
  <g>
    <path class="cls-27" d="M434.9,624.82l-26.99,1.75-10.29-199.81,26.41-1.41c2.68,29.72,5.83,57.09,19.49,84.21l-3.92-84.98,26.67-1.18,10.39,199.63-26.65,1.52c-2.04-35.08-6.08-67.75-20.23-99.9l5.12,100.17Z"/>
    <polygon class="cls-27" points="562.03 418.59 588.47 416.88 606.36 559.77 609.41 415.76 637.35 414.35 626.71 615.3 593.42 617.09 562.03 418.59"/>
    <path class="cls-29" d="M858.79,593.7c-10.59,3.9-21.44,6.34-32.56,8.19-5.3.88-30.21,4.57-33.48,2.52-1.08-.67-1.43-1.19-1.17-2.77.8-.41,1.28-.88,2.24-1.33,24.05-11.2,51.06-28.64,61.76-53.16,5.78-13.24,9.3-27.26,8.27-41.26.8-1.28,2.19-1.66,4.18-1.12l98.71-5.15,2.73-1.31c9.18,37.47-78.52,80.44-110.67,95.38Z"/>
    <path class="cls-8" d="M851.53,422.54c24.78,8.11,49.24,18.27,72.69,31.24,18.76,10.57,40.27,24.26,45.24,44.54-.15.74,0,2.22-.64,3.31l-100.79,5.26c-1.92.1-3.21-.3-4.19-.98-2.06-28.05-18.19-52.37-42.64-67.03-13.42-8.05-27.38-14.1-41.86-18.85,1.81-1.42,4.02-1.92,6.5-1.24,22.36-1.4,43.82,1.29,65.69,3.77Z"/>
    <polygon class="cls-27" points="688.49 519.73 691.95 587.87 716.55 586.63 717.75 610.52 665.31 613.36 655.19 413.15 707.36 410.44 708.81 434.34 684.11 435.7 687.22 496.06 709.13 494.7 710.48 518.6 688.49 519.73"/>
    <path class="cls-29" d="M847.37,508.13c1.87,29.69-23.14,53.21-52.62,55.29l-2.79-53.35.9-2.14c17.72-.62,35.44-1.24,53.17-1.86l1.34,2.06Z"/>
    <path class="cls-8" d="M847.37,508.13l-55.41,1.94-2.65-51.16c29.85-1.1,56.2,19.69,58.06,49.22Z"/>
    <polygon class="cls-27" points="448.17 413.99 397.09 416.87 393.63 348.26 412.03 347.15 414.84 399.92 452.07 398.13 448.17 413.99"/>
    <path class="cls-27" d="M534.35,595.08l-16.32.39-1.19,25.53-26.69,1.42,10.85-201.09,33.23-1.75,31.48,198.86-27.71,1.38-3.66-24.74ZM519.68,476.33l-1.36,94.91,12.79-.68-11.43-94.23Z"/>
    <path class="cls-27" d="M531.78,397.62l-57.63,3.03-3.43,12.38-18.49.67,20.06-69.51,17.72-.87,81.18,64.14-25.26,1.53-14.16-11.37ZM483.7,359.51l-6.59,27.83,37.18-2.64-30.59-25.19Z"/>
  </g>
  <path class="cls-9" d="M546.42,692.05c4.07-2.69,14.53,2.69,14.07,7.73-19.64,18.64-46.92,36.56-75.02,37.72l-130.4,5.4c-9.6.4-17.34-6.94-20.67-14.03-3.76-7.99-4.29-19.86,2.71-25.94l58.1-50.42c2.51-2.18,6.9.48,7.94,2.53,1.3,2.55,1.55,6.06-1.17,8.57l-26.27,24.19-22.66,20.5c-5.31,4.81-7.45,11.76-5.31,15,1.12,1.69,3.27,3.81,6.4,3.67l139.77-6.27c15.96-.72,41.45-17.23,52.5-28.66Z"/>
  <path class="cls-13" d="M858.79,593.7c-29.26,13.6-59.09,25.57-90.32,35.93-36.99,12.27-74.36,20.09-112.35,25.33-5.29.36-.76-3.84,1.9-5.39,3.93-2.29,8.52-2.28,12.88-1.9,2.93-3.83-26.95-5.02-28.86-4.83-1.62-.19-1.98-1.54-1.87-3.2,51.68-6.81,104.33-17.05,151.4-38.01,4.76,2.5,10.36,1.12,15.37.51l18.96-2.34,32.89-6.11Z"/>
  <path class="cls-7" d="M640.18,639.65c2.72,2.18,6.31,1.2,9.8,1.4l10.51.61c4.63.27,8.73,1.42,12.63,4.17,1.73-.9,1.8-3.65,2.45-4.67,2.09-.85,5.25.99,5.09,3.95-4.55-1.28-6.93,2.41-8.81,4.75-5.22-.41-11.33-1-15.63,3.94-1.26-.91-1.7,1.13-.09,1.17-18.56,2.56-37.25,3.64-56.6,4.42l-12.92,13.92-18.59,19.2c-3.56,1.02-4.4,2-5.52,5.38l-2.01,1.91c-3.92-3.75-8.68-6.14-14.07-7.73l36.25-37.46c4.88-5.04,10.44-11.06,17.82-11.67l39.7-3.27Z"/>
  <path class="cls-41" d="M719.22,691.51l-10.88-16.43c-.83-1.26-.36-2.66.48-3.32s2.25-.54,3.09.73l10.09,15.11,1.88-18.21c.17-1.63,1.43-1.99,2.26-1.94,1.25.08,2.19,1.28,2.01,2.8l-2.42,19.86c-.21,1.76-1.57,3.01-2.73,3.31-1.52.4-2.78-.4-3.78-1.9Z"/>
  <path class="cls-31" d="M766.02,680.34c-2.45.72-2.18-4.11-1.22-5.66l6.07-9.88c.88-1.43.17-3.51-.7-4.64s-2.76-1.63-4.33-.93c-3.06,1.35-1.89,6.17-3.82,6.84-1.08.37-2.73-.4-2.71-2.14.05-4.28,2.68-7.29,6.7-8.26,3.03-.73,5.74-.04,7.56,2.07,1.6,1.85,2.46,5.01.99,7.62l-5.76,10.24,8.63-2.27c1.19-.31,2.15.28,2.59,1.02.4.67,0,1.86-1.54,2.31l-12.47,3.67Z"/>
  <path class="cls-17" d="M804.86,667.63c-1.26.5-2.24-.33-2.59-.8-.51-.7-.84-2.44-.25-3.57l5.72-11.08c1.29-2.49-.26-5.33-2.63-5.85-2.2-.48-4.54.91-4.64,3.94-.04,1.18-.51,2.17-.87,2.7-.43.63-2.52.73-2.81-.05-1.79-4.79,1.9-9.34,6.99-9.98,2.81-.35,5.23.33,6.72,2.1,1.7,2.02,2.37,5.08,1.06,7.77l-4.94,10.13,9.03-3.01c.92-.31,2.52,2.39,1.71,2.72l-12.5,4.99Z"/>
  <path class="cls-34" d="M747.33,685.91c-3.13.82-2.67-3.55-1.69-5.1l6.23-9.81c.94-1.49.65-3.68-.25-4.95-.76-1.07-2.47-1.46-4.16-1.15-4.08.75-1.93,6.07-4.31,6.76-.89.26-2.16-.35-2.34-1.76-.6-4.73,3.31-8.41,8.1-8.54,2.94-.08,5.31,1.13,6.5,2.98,1.37,2.12,1.64,5.06.25,7.36l-5.84,9.68c5.92-.2,9.3-4.05,10.97-1.09.28.5.32,2.02-.61,2.26l-12.86,3.35Z"/>
  <path class="cls-40" d="M881.32,634.68c-3.59,3.2-5.86-7.92-4.6-19.47l-9.49,4.18c-.62.27-2.08-2.49-1.49-2.81l11.06-6.01c1.11-.61,2.21-.62,2.98-.01,2.16,1.72-2.16,9.1,2.46,21.09.47,1.22-.14,2.34-.92,3.04Z"/>
  <path class="cls-1" d="M863.15,643.84c-4.13,1.49-4.97-9.74-3.21-20.25l-7.87,3.53c-1.68.75-4-.73-3.74-1.95l11.53-6.17c1.22-.65,2.51-.64,3.19-.16,2.24,1.59-2.56,8.84,1.58,22.07.44,1.4-.72,2.66-1.48,2.93Z"/>
  <path class="cls-23" d="M840.07,635.42l-3.5,4.58c-.79,1.04-1.68.28-2.12-.14-2.12-2,2.58-3.9,4.25-10.54.15-.61,1.04-1.17,1.37-1.08.51.14,1.57.85,1.92,1.65l7.74,17.56c.52,1.18.34,2.66-.71,3.23-.95.52-2.59.12-3.22-1.42l-5.73-13.84Z"/>
  <path class="cls-35" d="M741.26,679c-1.68,4.1-6.69,4.65-10.13,3.15.67-3.64,6.11-5.28,10.13-3.15Z"/>
  <path class="cls-2" d="M893.72,620.18c-1.43.72-5.45,3.99-6.37.98-.7-2.29,5.08-5.54,7.6-5.02,1.13.23,1.14,2.85-1.23,4.04Z"/>
  <path class="cls-9" d="M568.01,692.49l-5.52,5.38-1.21-4.77c2.15-1.16,4.5-1.01,6.73-.61Z"/>
  <path class="cls-12" d="M820.31,655.88c2.24-2.78,3.93,1.76,6.84.51,2.25-.96,2.85-5.1,1.25-8.44-2.28,3.25-5.05,4.54-8.06,4-3.19-.57-5.63-3.37-6.01-7.1-.42-4.16,1.94-7.16,5.63-8.45,3.06-1.07,6.95-.22,9.35,3.07,2.8,3.83,4.73,8.89,3.86,13.91-.92,5.33-7.34,8.06-11.69,5.66-1.74-.96-1.97-2.14-1.16-3.14ZM825.9,642.27c-1.17-2.46-3.51-3.75-6.07-2.24-2.19,1.29-1.84,4.68-.56,6.53.81,1.17,2.69,3.1,5.07,1.8,3.06-1.67,2.32-4.49,1.56-6.09Z"/>
  <path class="cls-20" d="M652.99,699.83c-1.66-2.18-4.19-2.91-6.95-1.5l.8,7.75c.15,1.45-.82,2.36-1.67,2.55-1.49.33-2.64-.7-2.83-2.54l-2.21-20.91,12.98-1.79c3.1-.43,5.46,2.28,5.99,4.54.82,3.49-.32,6.28-4.38,8.05,6,4.63,8.8,9.92,5.17,10.37-.79.1-1.99-.08-2.82-1.16l-4.09-5.36ZM653.08,687.23c-2.76-.86-5.43-.13-8.17.33-.16,2.25.1,4.35.87,6.71,2.91.1,5.35-.14,7.84-1.39,1.57-1.41,1.41-5.04-.53-5.64Z"/>
  <path class="cls-36" d="M792.21,652.35c4.77,5.72,7.12,17.08-.34,20.19-3.13,1.31-7.27.38-9.51-3.08-5.14-7.93-5.83-16.96.71-19.34,2.78-1.01,6.68-.71,9.14,2.24ZM790.1,669.73c6.13-1.72-.41-18.62-5.39-16.79-5.29,1.95.34,18.21,5.39,16.79Z"/>
  <path class="cls-14" d="M908.43,618.56c-6.53,3.14-12.69-3.53-15.36-11.35-1.09-3.2-.31-6.53,1.95-8.44,2.12-1.78,5.68-2.73,8.67-1.04,4.81,2.73,8.48,8,9.3,13.55.54,3.63-2.14,6.12-4.56,7.28ZM897.98,600.69c-5.02,3.62,5.72,18.13,9.64,14.89,4.5-3.72-5.14-18.13-9.64-14.89Z"/>
</svg>